<svg width="260" height="92" viewBox="0 0 260 92" fill="none" xmlns="http://www.w3.org/2000/svg">
  <rect width="260" height="92" rx="18" fill="#050505"/>
  <path d="M23 64L55 24H77L93 64H73L70 55H48L41 64H23Z" fill="white"/>
  <path d="M54 44H67L63 32L54 44Z" fill="#ff0000"/>
  <path d="M95 24H116L127 41L148 24H172L136 52L129 64H108L117 50L95 24Z" fill="white"/>
  <path d="M165 64C152 64 146 57 150 45L153 35C156 27 164 24 176 24H217L211 38H174C170 38 167 40 166 44L164 49C163 53 165 55 170 55H184L187 48H174L178 38H212L203 64H165Z" fill="white"/>
  <path d="M218 24H237L219 64H200L218 24Z" fill="#ff0000"/>
  <path d="M32 73H220" stroke="#ff0000" stroke-width="4" stroke-linecap="round"/>
  <text x="35" y="86" fill="#ffffff" font-family="Arial Black, Arial, sans-serif" font-size="10" letter-spacing="4">MOTOR RACING</text>
</svg>
